<?xml version="1.0" encoding="UTF-8"?>
<!-- Created with Inkscape (http://www.inkscape.org/) -->
<svg width="210mm" height="210mm" version="1.1" viewBox="0 0 210 210" xmlns="http://www.w3.org/2000/svg">
 <defs>
  <filter id="filter24" x="-.083375" y="-.063236" width="1.1667" height="1.1265" color-interpolation-filters="sRGB">
   <feGaussianBlur result="blur" stdDeviation="5 5"/>
  </filter>
  <filter id="filter26" x="-.079968" y="-.075813" width="1.1599" height="1.1516" color-interpolation-filters="sRGB">
   <feGaussianBlur result="blur" stdDeviation="5 5"/>
  </filter>
 </defs>
 <path transform="matrix(.87055 0 0 .87055 9.3211 13.57)" d="m91.42 12.069c-5.6191-0.01278-11.518 0.79388-17.597 2.3639l-67.906 17.539c-4.271 1.1042-6.806 5.4967-5.6253 9.7472l1.6122 5.8019 41.289 148.54c1.1514 4.1421 5.4079 6.5992 9.5706 5.5246l41.032-10.6c4.271-1.1042 6.806-5.4967 5.6253-9.7472l-13.769-49.533 14.588-3.7666c17.823-4.6034 31.263-13.386 38.077-26.652l4e-3 -0.0103c6.7009-12.955 7.2121-28.5 2.52-45.38-4.5546-16.385-12.466-29.088-24.124-36.682-7.357-4.8271-15.941-7.1217-25.298-7.143zm3.7194 15.855c4.9737 0.49478 9.2081 2.0322 12.937 4.4813 8e-3 0.0062 0.0178 0.01235 0.0267 0.01849 7.6927 5.0093 13.671 13.764 17.543 27.695 3.969 14.278 3.1941 25.165-1.335 33.916-5e-3 9e-3 -9e-3 0.01779-0.0144 0.0267-4.305 8.3961-12.888 14.7-27.999 18.603l-22.366 5.7752c-4.2729 1.1032-6.8093 5.4975-5.6273 9.7493l13.769 49.531-25.756 6.6542-38.679-139.14 60.13-15.531c6.6848-1.7266 12.397-2.2754 17.371-1.7806zm-15.214 20.336c-3.9805-0.25938-8.2386 0.349-12.62 1.4808l-11.635 3.0047c-4.272 1.1042-6.8073 5.4981-5.6253 9.7493l9.5685 34.425c1.1514 4.1421 5.4079 6.5992 9.5706 5.5246l10.01-2.5857c8.9014-2.2991 16.159-5.8606 20.127-12.705 0.0152-0.02524 0.0303-0.05058 0.0452-0.07599 3.3052-5.8504 3.9197-12.949 2.0866-19.544-1.7462-6.2818-5.3951-11.829-10.575-15.543-3.2701-2.3449-6.9723-3.4723-10.953-3.7317z" color="#000000" filter="url(#filter24)" opacity=".39012" style="-inkscape-stroke:none;paint-order:markers fill stroke"/>
 <path transform="matrix(.87055 0 0 .87055 9.3211 13.57)" d="m11.993 40.982 64.578-16.68c14.065-3.6328 25.67-2.4453 34.816 3.5624 9.2032 5.9929 15.809 16.198 19.816 30.615 4.1189 14.818 3.5073 27.388-1.8348 37.71-5.285 10.307-15.76 17.484-31.426 21.53l-21.269 5.4934 15.14 54.465-39.021 10.079-39.266-141.26zm56.415 52.496 9.5195-2.4588c7.4898-1.9345 12.332-4.7949 14.528-8.5811 2.1768-3.853 2.6065-8.149 1.2892-12.888-1.2802-4.6055-3.6806-8.1705-7.2012-10.695-3.5206-2.5245-8.9114-2.8491-16.173-0.97361l-11.063 2.8575z" color="#000000" fill="#fff" stroke-linecap="round" stroke-linejoin="round" style="-inkscape-stroke:none;paint-order:markers fill stroke"/>
 <path transform="matrix(.87055 0 0 .87055 9.3211 13.57)" d="m91.43 14.793c-5.3438-0.01215-10.954 0.75497-16.734 2.248l-64.578 16.68c-4.0617 1.0501-6.4725 5.2273-5.3496 9.2695l1.5332 5.5176 39.266 141.26c1.0949 3.9392 5.1428 6.2758 9.1016 5.2539l39.021-10.08c4.0617-1.0501 6.4725-5.2274 5.3496-9.2695l-13.094-47.105 13.873-3.582c16.949-4.3778 29.731-12.73 36.211-25.346l4e-3 -0.0098c6.3725-12.32 6.8587-27.104 2.3965-43.156-4.3315-15.582-11.855-27.662-22.941-34.885-6.9964-4.5906-15.16-6.7727-24.059-6.793zm3.5371 15.078c4.73 0.47053 8.7569 1.9326 12.303 4.2617 8e-3 0.0059 0.0169 0.01174 0.0254 0.01758 7.3157 4.7638 13.001 13.09 16.684 26.338 3.7745 13.579 3.0376 23.932-1.2695 32.254-5e-3 0.0085-9e-3 0.01692-0.0137 0.02539-4.094 7.9846-12.257 13.98-26.627 17.691l-21.27 5.4922c-4.0635 1.0492-6.4756 5.2281-5.3516 9.2715l13.094 47.104-24.494 6.3281-36.783-132.32 57.184-14.77c6.3572-1.642 11.79-2.1639 16.52-1.6934zm-14.469 19.34c-3.7854-0.24666-7.8348 0.3319-12.002 1.4082l-11.064 2.8574c-4.0627 1.05-6.4737 5.2287-5.3496 9.2715l9.0996 32.738c1.0949 3.9391 5.1428 6.2758 9.1016 5.2539l9.5195-2.459c8.4651-2.1864 15.367-5.5734 19.141-12.082 0.01446-0.02401 0.02878-0.0481 0.04297-0.07227 3.1432-5.5636 3.7276-12.315 1.9844-18.586-1.6606-5.974-5.1307-11.249-10.057-14.781-3.1098-2.23-6.6306-3.3022-10.416-3.5488z" color="#000000" fill="#070fff" stroke-linecap="round" stroke-linejoin="round" style="-inkscape-stroke:none;paint-order:markers fill stroke"/>
 <path transform="matrix(.81282 0 0 .81282 24.066 20.743)" d="m185.5 45.728c-5.2874 0.31673-10.4 2.0198-14.821 4.9376a14.125 14.125 0 0 0-2e-3 2e-3c-28.009 18.493-44.602 43.895-56.203 69.588-11.718-7.966-28.053-6.8146-38.382 3.5291-11.659 11.677-11.647 31.023 0.02935 42.683a14.125 14.125 0 0 0 2e-3 0l29.031 28.988a14.125 14.125 0 0 0 0 2e-3c15.501 15.475 43.202 8.8409 50.014-11.976a14.125 14.125 0 0 0 0-2e-3c12.186-37.266 23.263-65.595 48.769-82.436a14.125 14.125 0 0 0 2e-3 0c13.769-9.093 17.646-28.046 8.5547-41.817-5.9289-8.9792-16.254-14.143-26.994-13.498zm1.6902 28.197c0.71257-0.04275 1.3379 0.26896 1.7313 0.86466 0.68085 1.0313 0.48148 1.9991-0.5497 2.6801-34.427 22.732-47.649 59.302-60.051 97.23-0.63468 1.9375-1.7647 2.206-3.2083 0.76489l-29.029-28.986c-0.87444-0.87326-0.87519-1.8604-0.0021-2.7348a14.125 14.125 0 0 0 0-2e-3c0.87268-0.874 1.8607-0.87359 2.7348-2e-3l10.896 10.881a14.125 14.125 0 0 0 23.223-5.0804c10.992-29.624 25.188-56.733 53.304-75.298l2e-3 -2e-3c0.28354-0.18661 0.60991-0.29466 0.94879-0.31496z" color="#000000" filter="url(#filter26)" opacity=".386" style="-inkscape-stroke:none;paint-order:stroke markers fill"/>
 <path transform="matrix(.81282 0 0 .81282 24.066 20.743)" d="m182.22 48.304c-5.0118 0.30022-9.8576 1.9145-14.048 4.6802a13.389 13.389 0 0 0-2e-3 0.0019c-26.548 17.529-42.277 41.607-53.273 65.96-11.107-7.5507-26.591-6.4594-36.381 3.3451-11.051 11.068-11.039 29.406 0.02782 40.458a13.389 13.389 0 0 0 0.0019 0l27.517 27.477a13.389 13.389 0 0 0 0 2e-3c14.693 14.668 40.95 8.38 47.406-11.352a13.389 13.389 0 0 0 0-2e-3c11.551-35.324 22.05-62.176 46.227-78.139a13.389 13.389 0 0 0 2e-3 0c13.052-8.619 16.726-26.584 8.1087-39.637-5.6199-8.5111-15.406-13.405-25.587-12.794zm1.6021 26.727c0.67542-0.04052 1.2682 0.25494 1.641 0.81959 0.64536 0.97749 0.45638 1.8949-0.52104 2.5404-32.632 21.547-45.165 56.211-56.921 92.161-0.6016 1.8365-1.6727 2.091-3.041 0.72502l-27.516-27.475c-0.82886-0.82774-0.82957-1.7634-2e-3 -2.5923a13.389 13.389 0 0 0 0-2e-3c0.82719-0.82844 1.7637-0.82805 2.5923-2e-3l10.328 10.313a13.389 13.389 0 0 0 22.012-4.8155c10.419-28.079 23.875-53.775 50.525-71.373l2e-3 -0.0019c0.26876-0.17688 0.57812-0.2793 0.89933-0.29854z" color="#000000" fill="#fff" style="-inkscape-stroke:none;paint-order:stroke markers fill"/>
 <path transform="matrix(.81282 0 0 .81282 24.066 20.743)" d="m183.02 61.667a15.222 15.222 0 0 0-7.4746 2.4903c-29.96 19.782-44.891 48.753-55.702 77.889l-10.328-10.313a15.222 15.222 0 0 0-21.526 0.0167 15.222 15.222 0 0 0 0.01484 21.526l27.517 27.477a15.223 15.223 0 0 0 25.224-6.0394c11.654-35.637 23.17-66.395 51.575-85.15a15.222 15.222 0 0 0 4.3149-21.089 15.222 15.222 0 0 0-13.614-6.807z" color="#000000" fill="#070fff" style="-inkscape-stroke:none;paint-order:stroke markers fill"/>
</svg>
